<svg width="66" height="54" viewBox="0 0 66 54" fill="none" xmlns="http://www.w3.org/2000/svg">
<path d="M2.14 44.02C1.83333 44.02 1.58667 43.5733 1.4 42.68C1.21333 41.7733 1.09333 40.9933 1.04 40.34C0.986667 39.6867 0.913333 38.6533 0.82 37.24C0.806667 37.0133 0.8 36.72 0.8 36.36C0.8 35.9067 0.833333 35.5933 0.9 35.42C0.98 35.2467 1.10667 35.16 1.28 35.16C1.42667 35.16 1.54 35.1933 1.62 35.26C1.71333 35.3133 1.79333 35.4067 1.86 35.54L1.84 36.34C1.84 37.1933 1.88 38 1.96 38.76C2.05333 39.52 2.19333 40.54 2.38 41.82C2.48667 42.38 2.56 42.84 2.6 43.2C2.62667 43.3867 2.59333 43.5733 2.5 43.76C2.40667 43.9333 2.28667 44.02 2.14 44.02ZM1.64 33.02C1.34667 33.02 1.12667 32.9067 0.98 32.68C0.846667 32.4533 0.78 32.1733 0.78 31.84C0.78 31.6933 0.786667 31.5867 0.8 31.52C0.786667 31.3067 0.906667 31.2 1.16 31.2C1.34667 31.2 1.53333 31.2467 1.72 31.34C1.92 31.42 1.98 31.48 1.9 31.52C2.03333 31.8667 2.1 32.14 2.1 32.34C2.1 32.5133 2.06 32.6533 1.98 32.76C1.9 32.8533 1.78667 32.94 1.64 33.02ZM6.29375 44.08C6.10708 44.1333 6.00042 44.16 5.97375 44.16C5.86708 44.16 5.75375 44.1067 5.63375 44C5.19375 43.3467 4.87375 42.2067 4.67375 40.58C4.48708 38.9533 4.39375 37.5533 4.39375 36.38C4.39375 36.1933 4.52708 36.1 4.79375 36.1C5.19375 36.1 5.39375 36.32 5.39375 36.76C5.39375 36.88 5.38708 36.98 5.37375 37.06C5.49375 36.78 5.72042 36.4933 6.05375 36.2C6.38708 35.9067 6.77375 35.66 7.21375 35.46C7.65375 35.26 8.10042 35.16 8.55375 35.16C9.98042 35.16 11.0204 35.7933 11.6738 37.06C12.3271 38.3133 12.6538 39.8733 12.6538 41.74C12.6538 42.38 12.5871 42.8933 12.4538 43.28C12.3204 43.6533 12.1404 43.84 11.9138 43.84C11.6738 43.84 11.5538 43.7667 11.5538 43.62C11.6471 42.9133 11.6938 42.22 11.6938 41.54C11.6938 39.82 11.3938 38.52 10.7938 37.64C10.1938 36.7467 9.40042 36.3 8.41375 36.3C7.93375 36.3 7.46708 36.42 7.01375 36.66C6.57375 36.9 6.21375 37.2333 5.93375 37.66C5.66708 38.0867 5.53375 38.5733 5.53375 39.12C5.53375 39.7333 5.56708 40.2667 5.63375 40.72C5.70042 41.1733 5.80708 41.72 5.95375 42.36C6.11375 42.9867 6.22708 43.56 6.29375 44.08ZM15.517 52.36C14.3704 52.36 13.417 51.8933 12.657 50.96C11.897 50.04 11.4304 48.7133 11.257 46.98C11.257 46.94 11.257 46.8467 11.257 46.7C11.2437 46.5533 11.2704 46.4267 11.337 46.32C11.3904 46.2267 11.4837 46.1667 11.617 46.14C11.6837 46.1533 11.7504 46.24 11.817 46.4C11.8704 46.56 11.937 46.8333 12.017 47.22C12.1904 47.98 12.3837 48.64 12.597 49.2C12.8104 49.76 13.137 50.26 13.577 50.7C14.017 51.14 14.5837 51.36 15.277 51.36C15.837 51.36 16.2237 51.2067 16.437 50.9C16.6637 50.5933 16.7904 50.1067 16.817 49.44L16.837 48.6C16.837 46.84 16.677 45.0267 16.357 43.16C16.0504 41.28 15.6104 39.1133 15.037 36.66C15.0504 36.6067 15.0637 36.5267 15.077 36.42C15.0904 36.3 15.1304 36.22 15.197 36.18C15.277 36.14 15.4037 36.12 15.577 36.12C15.8704 36.2933 16.1904 37.1533 16.537 38.7C16.897 40.2333 17.197 42.0067 17.437 44.02C17.6904 46.0467 17.817 47.8067 17.817 49.3C17.817 50.38 17.6037 51.16 17.177 51.64C16.7504 52.12 16.197 52.36 15.517 52.36ZM15.637 34.26C15.3437 34.26 15.1237 34.1467 14.977 33.92C14.8437 33.6933 14.777 33.4133 14.777 33.08C14.777 32.9333 14.7837 32.8267 14.797 32.76C14.7837 32.5467 14.9037 32.44 15.157 32.44C15.3437 32.44 15.5304 32.4867 15.717 32.58C15.917 32.66 15.977 32.72 15.897 32.76C16.0304 33.1067 16.097 33.38 16.097 33.58C16.097 33.7533 16.057 33.8933 15.977 34C15.897 34.0933 15.7837 34.18 15.637 34.26ZM22.9809 44C22.1276 44 21.3409 43.8333 20.6209 43.5C19.9009 43.1667 19.3276 42.6933 18.9009 42.08C18.4743 41.4667 18.2609 40.76 18.2609 39.96C18.2609 39.0667 18.4276 38.2333 18.7609 37.46C19.0943 36.6733 19.5809 36.0467 20.2209 35.58C20.8743 35.1 21.6343 34.86 22.5009 34.86C23.4076 34.86 24.0943 35.1533 24.5609 35.74C25.0276 36.3133 25.2476 37.04 25.2209 37.92C25.2209 38.7067 24.9076 39.3067 24.2809 39.72C23.6676 40.1333 22.8809 40.34 21.9209 40.34C21.7743 40.34 21.5543 40.3267 21.2609 40.3C20.7809 40.2467 20.4409 40.1733 20.2409 40.08C20.0409 39.9867 19.9409 39.8 19.9409 39.52C19.9409 39.4267 19.9676 39.36 20.0209 39.32C20.0743 39.2667 20.1809 39.24 20.3409 39.24C20.5143 39.24 20.8209 39.28 21.2609 39.36C21.6876 39.44 22.0676 39.48 22.4009 39.48C23.6276 39.48 24.2409 38.9467 24.2409 37.88C24.2409 37.24 24.1209 36.7333 23.8809 36.36C23.6543 35.9867 23.2476 35.8 22.6609 35.8C22.0209 35.8 21.4476 35.9733 20.9409 36.32C20.4343 36.6533 20.0409 37.0933 19.7609 37.64C19.4943 38.1867 19.3609 38.7667 19.3609 39.38C19.3609 40.4333 19.6543 41.3 20.2409 41.98C20.8276 42.6467 21.7343 42.98 22.9609 42.98C23.1076 42.98 23.3543 42.9667 23.7009 42.94C23.8476 42.9267 24.0276 42.8867 24.2409 42.82C24.4543 42.7533 24.6076 42.7067 24.7009 42.68C25.2743 42.48 25.6943 42.38 25.9609 42.38C26.1609 42.38 26.3143 42.4333 26.4209 42.54C26.0876 43.0467 25.5876 43.42 24.9209 43.66C24.2676 43.8867 23.6209 44 22.9809 44ZM32.1458 44.02C30.5858 44.02 29.3724 43.6667 28.5058 42.96C27.6524 42.24 27.2258 41.1333 27.2258 39.64C27.2258 38.88 27.4124 38.16 27.7858 37.48C28.1724 36.7867 28.6858 36.2333 29.3258 35.82C29.9791 35.3933 30.6791 35.18 31.4258 35.18C32.1858 35.18 32.8324 35.3467 33.3658 35.68C33.8991 36 34.1658 36.4667 34.1658 37.08C34.1658 37.5067 34.0858 37.8133 33.9258 38C33.7791 38.1733 33.6124 38.26 33.4258 38.26C33.4258 37.62 33.2524 37.1 32.9058 36.7C32.5591 36.3 32.0658 36.1 31.4258 36.1C30.7858 36.1 30.2324 36.2733 29.7658 36.62C29.2991 36.9533 28.9391 37.4 28.6858 37.96C28.4458 38.5067 28.3258 39.08 28.3258 39.68C28.3258 40.9467 28.7524 41.8067 29.6058 42.26C30.4724 42.7133 31.6124 42.94 33.0258 42.94C33.5058 42.94 34.1324 42.9133 34.9058 42.86C34.9324 42.86 34.9924 42.8867 35.0858 42.94C35.1791 42.9933 35.2524 43.0267 35.3058 43.04V43.16C35.3058 43.5467 34.9658 43.7867 34.2858 43.88C33.6058 43.9733 32.8924 44.02 32.1458 44.02ZM39.3325 44C39.1992 44.0267 39.1125 44.04 39.0725 44.04C38.6592 44.04 38.3725 43.7333 38.2125 43.12C38.0658 42.5067 37.9925 41.6467 37.9925 40.54C37.9925 40.0867 38.0058 39.38 38.0325 38.42C38.0592 37.8333 38.0725 37.3933 38.0725 37.1C36.4325 37.1 35.6125 36.9133 35.6125 36.54C35.6125 36.42 35.6258 36.3267 35.6525 36.26C35.6925 36.1933 35.7725 36.16 35.8925 36.16L38.0725 36.02C38.0592 35.3667 38.0258 34.6533 37.9725 33.88C37.9192 33.1867 37.8858 32.5467 37.8725 31.96C37.8725 31.8133 37.9325 31.7133 38.0525 31.66C38.1725 31.5933 38.2992 31.56 38.4325 31.56C38.5925 31.56 38.7258 31.6467 38.8325 31.82C38.9392 31.98 38.9925 32.1467 38.9925 32.32L39.1325 35.98L40.7925 36.06C41.0458 36.0333 41.2592 36.08 41.4325 36.2C41.6192 36.32 41.7192 36.52 41.7325 36.8C41.4525 36.92 41.1458 36.9933 40.8125 37.02C40.4792 37.0467 39.9192 37.06 39.1325 37.06C39.1325 38.3 39.1925 40.34 39.3125 43.18C39.3125 43.4733 39.3125 43.68 39.3125 43.8C39.3258 43.9067 39.3325 43.9733 39.3325 44ZM44.1713 44.02C43.8646 44.02 43.6179 43.5733 43.4313 42.68C43.2446 41.7733 43.1246 40.9933 43.0713 40.34C43.0179 39.6867 42.9446 38.6533 42.8513 37.24C42.8379 37.0133 42.8313 36.72 42.8313 36.36C42.8313 35.9067 42.8646 35.5933 42.9313 35.42C43.0113 35.2467 43.1379 35.16 43.3113 35.16C43.4579 35.16 43.5713 35.1933 43.6513 35.26C43.7446 35.3133 43.8246 35.4067 43.8913 35.54L43.8713 36.34C43.8713 37.1933 43.9113 38 43.9913 38.76C44.0846 39.52 44.2246 40.54 44.4113 41.82C44.5179 42.38 44.5913 42.84 44.6313 43.2C44.6579 43.3867 44.6246 43.5733 44.5312 43.76C44.4379 43.9333 44.3179 44.02 44.1713 44.02ZM43.6713 33.02C43.3779 33.02 43.1579 32.9067 43.0113 32.68C42.8779 32.4533 42.8113 32.1733 42.8113 31.84C42.8113 31.6933 42.8179 31.5867 42.8313 31.52C42.8179 31.3067 42.9379 31.2 43.1913 31.2C43.3779 31.2 43.5646 31.2467 43.7513 31.34C43.9513 31.42 44.0113 31.48 43.9313 31.52C44.0646 31.8667 44.1313 32.14 44.1313 32.34C44.1313 32.5133 44.0913 32.6533 44.0113 32.76C43.9313 32.8533 43.8179 32.94 43.6713 33.02ZM50.565 44.02C49.7783 44.02 49.065 43.8467 48.425 43.5C47.7983 43.14 47.305 42.6467 46.945 42.02C46.5983 41.38 46.425 40.6533 46.425 39.84C46.425 38.5067 46.9117 37.5133 47.885 36.86C48.8717 36.2067 50.0783 35.88 51.505 35.88C52.1583 35.88 52.765 36.04 53.325 36.36C53.8983 36.68 54.3583 37.14 54.705 37.74C55.0517 38.34 55.225 39.0333 55.225 39.82C55.225 40.6733 55.005 41.42 54.565 42.06C54.125 42.6867 53.545 43.1733 52.825 43.52C52.1183 43.8533 51.365 44.02 50.565 44.02ZM50.345 42.88C51.585 42.88 52.525 42.6 53.165 42.04C53.805 41.48 54.125 40.66 54.125 39.58C54.125 38.8467 53.8717 38.2133 53.365 37.68C52.8717 37.1467 52.1783 36.88 51.285 36.88C50.685 36.88 50.0783 36.9933 49.465 37.22C48.8517 37.4467 48.345 37.7867 47.945 38.24C47.545 38.6933 47.345 39.24 47.345 39.88C47.345 40.4133 47.4783 40.9133 47.745 41.38C48.0117 41.8333 48.3717 42.2 48.825 42.48C49.2917 42.7467 49.7983 42.88 50.345 42.88ZM58.7156 44.08C58.529 44.1333 58.4223 44.16 58.3956 44.16C58.289 44.16 58.1756 44.1067 58.0556 44C57.6156 43.3467 57.2956 42.2067 57.0956 40.58C56.909 38.9533 56.8156 37.5533 56.8156 36.38C56.8156 36.1933 56.949 36.1 57.2156 36.1C57.6156 36.1 57.8156 36.32 57.8156 36.76C57.8156 36.88 57.809 36.98 57.7956 37.06C57.9156 36.78 58.1423 36.4933 58.4756 36.2C58.809 35.9067 59.1956 35.66 59.6356 35.46C60.0756 35.26 60.5223 35.16 60.9756 35.16C62.4023 35.16 63.4423 35.7933 64.0956 37.06C64.749 38.3133 65.0756 39.8733 65.0756 41.74C65.0756 42.38 65.009 42.8933 64.8756 43.28C64.7423 43.6533 64.5623 43.84 64.3356 43.84C64.0956 43.84 63.9756 43.7667 63.9756 43.62C64.069 42.9133 64.1156 42.22 64.1156 41.54C64.1156 39.82 63.8156 38.52 63.2156 37.64C62.6156 36.7467 61.8223 36.3 60.8356 36.3C60.3556 36.3 59.889 36.42 59.4356 36.66C58.9956 36.9 58.6356 37.2333 58.3556 37.66C58.089 38.0867 57.9556 38.5733 57.9556 39.12C57.9556 39.7333 57.989 40.2667 58.0556 40.72C58.1223 41.1733 58.229 41.72 58.3756 42.36C58.5356 42.9867 58.649 43.56 58.7156 44.08Z" fill="#00FEFE"/>
<path d="M8.61 29.03C5.85 29.01 3.83 28.39 2.55 27.17C1.27 25.95 0.63 24.38 0.63 22.46C0.63 20.74 1.1 19.88 2.04 19.88C2.22 19.96 2.31 20.05 2.31 20.15C2.31 20.23 2.27 20.34 2.19 20.48C2.13 20.62 2.08 20.75 2.04 20.87C1.94 21.23 1.89 21.57 1.89 21.89C1.89 22.77 2.19 23.63 2.79 24.47C3.39 25.31 4.2 26 5.22 26.54C6.24 27.06 7.33 27.32 8.49 27.32C9.35 27.32 10.02 26.94 10.5 26.18C11 25.42 11.25 24.25 11.25 22.67C11.25 21.71 11.17 20.72 11.01 19.7L9.39 8.72C9.61 8.42 9.8 8.27 9.96 8.27C10.46 8.27 10.89 9.17 11.25 10.97C11.61 12.75 12.03 15.5 12.51 19.22L12.63 20.21C12.77 21.37 12.84 22.28 12.84 22.94C12.84 24.92 12.48 26.43 11.76 27.47C11.04 28.51 9.99 29.03 8.61 29.03ZM15.9984 25.46C16.2784 25.24 16.5484 25.13 16.8084 25.13C17.0484 25.13 17.2784 25.2 17.4984 25.34C17.7384 25.48 17.9784 25.66 18.2184 25.88C18.4584 26.08 18.6484 26.23 18.7884 26.33C19.2484 26.69 19.8784 26.97 20.6784 27.17C21.4784 27.37 22.3284 27.47 23.2284 27.47C24.2484 27.47 25.1584 27.28 25.9584 26.9C26.7784 26.5 27.1884 25.97 27.1884 25.31C27.1884 24.71 26.9684 24.24 26.5284 23.9C26.0884 23.54 25.5584 23.28 24.9384 23.12C24.3184 22.96 23.4984 22.81 22.4784 22.67C21.0984 22.51 19.9984 22.31 19.1784 22.07C18.3784 21.83 17.7384 21.44 17.2584 20.9C16.7784 20.34 16.5384 19.56 16.5384 18.56C16.5384 17.48 17.0484 16.68 18.0684 16.16C19.0884 15.62 20.2584 15.35 21.5784 15.35C22.7784 15.35 23.7984 15.61 24.6384 16.13C25.4984 16.63 25.9384 17.35 25.9584 18.29C25.9984 18.83 25.9184 19.26 25.7184 19.58C25.5184 19.88 25.2784 20.03 24.9984 20.03C24.8384 20.03 24.6984 19.97 24.5784 19.85C24.4784 19.73 24.4284 19.57 24.4284 19.37C24.4284 19.05 24.5384 18.7 24.7584 18.32C24.6584 17.84 24.3284 17.48 23.7684 17.24C23.2284 17 22.5784 16.88 21.8184 16.88C20.6984 16.88 19.8084 17.09 19.1484 17.51C18.4884 17.91 18.1584 18.39 18.1584 18.95C18.1584 19.55 18.3984 20.01 18.8784 20.33C19.3584 20.65 19.9384 20.88 20.6184 21.02C21.3184 21.14 22.3084 21.26 23.5884 21.38C24.6484 21.52 25.5084 21.69 26.1684 21.89C26.8484 22.09 27.4184 22.48 27.8784 23.06C28.3384 23.62 28.5684 24.43 28.5684 25.49C28.5684 26.59 28.0584 27.46 27.0384 28.1C26.0184 28.72 24.7984 29.03 23.3784 29.03C21.5584 29.03 19.9284 28.72 18.4884 28.1C17.0684 27.48 16.2384 26.6 15.9984 25.46Z" fill="#FF4473"/>
</svg>
