<svg width="76" height="21" viewBox="0 0 76 21" fill="none" xmlns="http://www.w3.org/2000/svg">
<path d="M0.89 20.83C0.67 20.83 0.52 20.75 0.44 20.59C0.38 20.45 0.35 20.22 0.35 19.9C0.35 18.82 0.76 17.63 1.58 16.33C2.42 15.01 3.51 13.53 4.85 11.89C5.21 11.47 5.48 11.13 5.66 10.87L4.64 9.25C3.82 7.97 3.21 6.94 2.81 6.16C2.43 5.38 2.24 4.64 2.24 3.94C2.24 3.68 2.28 3.5 2.36 3.4C2.46 3.3 2.63 3.25 2.87 3.25C3.07 3.25 3.38 3.58 3.8 4.24C4.22 4.88 4.79 5.82 5.51 7.06C5.65 7.32 5.88 7.73 6.2 8.29C6.54 8.83 6.77 9.15 6.89 9.25C7.83 8.39 8.61 7.73 9.23 7.27C9.85 6.81 10.79 6.18 12.05 5.38C12.55 5.08 13.02 4.82 13.46 4.6C13.92 4.36 14.35 4.24 14.75 4.24C15.19 4.24 15.45 4.45 15.53 4.87C14.19 5.71 12.8 6.71 11.36 7.87C9.92 9.03 8.78 10.14 7.94 11.2C8.12 11.72 8.45 12.32 8.93 13C9.41 13.68 10.03 14.5 10.79 15.46C11.53 16.42 12.06 17.14 12.38 17.62C12.7 18.08 12.86 18.44 12.86 18.7C12.86 18.92 12.71 19.03 12.41 19.03C12.25 19.03 12.05 19 11.81 18.94C11.25 18.5 10.72 17.97 10.22 17.35C9.72 16.71 9.14 15.91 8.48 14.95C7.48 13.57 6.83 12.71 6.53 12.37C5.69 13.35 4.69 14.7 3.53 16.42L2.87 17.38C2.67 17.68 2.39 18.23 2.03 19.03C1.77 19.61 1.56 20.04 1.4 20.32C1.24 20.6 1.07 20.77 0.89 20.83ZM27.2652 17.86C28.9052 17.86 30.1752 17.63 31.0752 17.17C31.9752 16.71 32.4252 16.04 32.4252 15.16C32.4252 14.38 32.1552 13.71 31.6152 13.15C31.0752 12.57 30.4052 12.08 29.6052 11.68C28.8052 11.28 27.7152 10.81 26.3352 10.27C26.2152 10.23 25.9252 10.12 25.4652 9.94C23.5852 9.18 22.1352 8.42 21.1152 7.66C20.1152 6.9 19.6152 5.92 19.6152 4.72C19.6152 3.38 20.1452 2.37 21.2052 1.69C22.2652 1.01 23.6252 0.67 25.2852 0.67C26.5052 0.67 27.6252 0.83 28.6452 1.15C29.6852 1.45 30.5052 1.87 31.1052 2.41C31.7252 2.95 32.0352 3.56 32.0352 4.24C31.7952 4.36 31.5652 4.42 31.3452 4.42C31.1052 4.42 30.8552 4.37 30.5952 4.27C30.3552 4.15 29.9952 3.96 29.5152 3.7C28.7352 3.28 28.0052 2.95 27.3252 2.71C26.6452 2.45 25.8452 2.32 24.9252 2.32C23.7652 2.32 22.8252 2.52 22.1052 2.92C21.3852 3.32 21.0252 3.88 21.0252 4.6C21.0252 5.16 21.2652 5.67 21.7452 6.13C22.2452 6.59 22.8652 7 23.6052 7.36C24.3652 7.7 25.3752 8.11 26.6352 8.59C28.2352 9.21 29.5552 9.79 30.5952 10.33C31.6352 10.87 32.5152 11.56 33.2352 12.4C33.9752 13.22 34.3452 14.2 34.3452 15.34C34.3452 16.68 33.7052 17.72 32.4252 18.46C31.1452 19.18 29.5552 19.54 27.6552 19.54C26.1552 19.54 24.6752 19.32 23.2152 18.88C21.7552 18.44 20.5052 17.79 19.4652 16.93C18.4252 16.05 17.7652 15 17.4852 13.78C17.4852 13.24 17.6352 12.78 17.9352 12.4C18.2352 12 18.6052 11.8 19.0452 11.8C19.0452 13.1 19.4052 14.21 20.1252 15.13C20.8652 16.03 21.8552 16.71 23.0952 17.17C24.3552 17.63 25.7452 17.86 27.2652 17.86ZM46.5132 17.86C48.1532 17.86 49.4232 17.63 50.3232 17.17C51.2232 16.71 51.6732 16.04 51.6732 15.16C51.6732 14.38 51.4032 13.71 50.8632 13.15C50.3232 12.57 49.6532 12.08 48.8532 11.68C48.0532 11.28 46.9632 10.81 45.5832 10.27C45.4632 10.23 45.1732 10.12 44.7132 9.94C42.8332 9.18 41.3832 8.42 40.3632 7.66C39.3632 6.9 38.8632 5.92 38.8632 4.72C38.8632 3.38 39.3932 2.37 40.4532 1.69C41.5132 1.01 42.8732 0.67 44.5332 0.67C45.7532 0.67 46.8732 0.83 47.8932 1.15C48.9332 1.45 49.7532 1.87 50.3532 2.41C50.9732 2.95 51.2832 3.56 51.2832 4.24C51.0432 4.36 50.8132 4.42 50.5932 4.42C50.3532 4.42 50.1032 4.37 49.8432 4.27C49.6032 4.15 49.2432 3.96 48.7632 3.7C47.9832 3.28 47.2532 2.95 46.5732 2.71C45.8932 2.45 45.0932 2.32 44.1732 2.32C43.0132 2.32 42.0732 2.52 41.3532 2.92C40.6332 3.32 40.2732 3.88 40.2732 4.6C40.2732 5.16 40.5132 5.67 40.9932 6.13C41.4932 6.59 42.1132 7 42.8532 7.36C43.6132 7.7 44.6232 8.11 45.8832 8.59C47.4832 9.21 48.8032 9.79 49.8432 10.33C50.8832 10.87 51.7632 11.56 52.4832 12.4C53.2232 13.22 53.5932 14.2 53.5932 15.34C53.5932 16.68 52.9532 17.72 51.6732 18.46C50.3932 19.18 48.8032 19.54 46.9032 19.54C45.4032 19.54 43.9232 19.32 42.4632 18.88C41.0032 18.44 39.7532 17.79 38.7132 16.93C37.6732 16.05 37.0132 15 36.7332 13.78C36.7332 13.24 36.8832 12.78 37.1832 12.4C37.4832 12 37.8532 11.8 38.2932 11.8C38.2932 13.1 38.6532 14.21 39.3732 15.13C40.1132 16.03 41.1032 16.71 42.3432 17.17C43.6032 17.63 44.9932 17.86 46.5132 17.86Z" fill="#FF4473"/>
<path d="M60.8413 20.14C59.0813 20.14 57.7213 19.35 56.7612 17.77C55.8213 16.19 55.3513 14.19 55.3513 11.77C55.3513 8.95 55.7713 6.67 56.6113 4.93C57.4713 3.19 58.5113 1.96 59.7313 1.24C60.9513 0.52 62.1713 0.159999 63.3913 0.159999C64.0913 0.159999 64.6813 0.299999 65.1613 0.579999C65.6413 0.859999 65.8813 1.18 65.8813 1.54C65.8813 1.78 65.8213 1.98 65.7013 2.14C65.6013 2.28 65.4613 2.35 65.2813 2.35C65.0613 2.35 64.8113 2.27 64.5313 2.11C64.3313 1.99 64.1413 1.9 63.9613 1.84C63.8013 1.78 63.5813 1.75 63.3013 1.75C59.3013 1.75 57.3013 5.27 57.3013 12.31C57.3013 14.57 57.6813 16.22 58.4413 17.26C59.2013 18.28 60.3013 18.79 61.7413 18.79C62.1213 18.79 62.5213 18.76 62.9413 18.7C63.1413 18.78 63.2413 18.97 63.2413 19.27C63.2413 19.53 63.0213 19.74 62.5813 19.9C62.1413 20.06 61.5613 20.14 60.8413 20.14ZM68.4568 20.74C68.2768 20.74 68.0968 20.65 67.9168 20.47C67.7368 20.29 67.6468 20.1 67.6468 19.9C67.6468 19.8 67.6768 19.7 67.7368 19.6C67.7968 19.5 67.9168 19.39 68.0968 19.27C68.2768 19.15 68.4768 19.02 68.6968 18.88C69.6168 18.32 70.4368 17.72 71.1568 17.08C71.8768 16.44 72.5268 15.51 73.1068 14.29C73.6868 13.05 73.9768 11.52 73.9768 9.7C73.9768 8.08 73.7668 6.8 73.3468 5.86C72.9468 4.92 72.4768 4.26 71.9368 3.88C71.4168 3.48 70.7968 3.14 70.0768 2.86C69.7168 2.72 69.4568 2.6 69.2968 2.5C69.1368 2.38 69.0568 2.24 69.0568 2.08C69.0568 1.52 69.3868 1.24 70.0468 1.24C71.0068 1.24 71.9168 1.63 72.7768 2.41C73.6368 3.17 74.3268 4.2 74.8468 5.5C75.3868 6.8 75.6568 8.2 75.6568 9.7C75.6568 11.72 75.2768 13.58 74.5168 15.28C73.7568 16.96 72.8068 18.29 71.6668 19.27C70.5468 20.25 69.4768 20.74 68.4568 20.74Z" fill="#00FEFE"/>
</svg>
